<mxfile host="app.diagrams.net" agent="Mozilla/5.0 (Windows NT 10.0; Win64; x64) AppleWebKit/537.36 (KHTML, like Gecko) Chrome/135.0.0.0 Safari/537.36" version="26.2.6">
  <diagram name="Page-1" id="j6DJivinUTmnrMrVy6ru">
    <mxGraphModel dx="2580" dy="1399" grid="1" gridSize="10" guides="1" tooltips="1" connect="1" arrows="1" fold="1" page="1" pageScale="1" pageWidth="1120" pageHeight="320" math="0" shadow="0">
      <root>
        <mxCell id="0" />
        <mxCell id="1" parent="0" />
        <mxCell id="X6q3V4Yi2Z0Jdoqjkr0T-46" value="" style="rounded=1;whiteSpace=wrap;html=1;" parent="1" vertex="1">
          <mxGeometry width="1120" height="320" as="geometry" />
        </mxCell>
        <mxCell id="X6q3V4Yi2Z0Jdoqjkr0T-10" value="&lt;font style=&quot;font-size: 20px;&quot;&gt;&amp;nbsp; &amp;nbsp; &amp;nbsp; &amp;nbsp; &amp;nbsp; ESP32-WROOM-32UE&lt;/font&gt;" style="rounded=1;whiteSpace=wrap;html=1;verticalAlign=top;align=left;fillColor=#F3F3F3;" parent="1" vertex="1">
          <mxGeometry x="190" y="50" width="600" height="260" as="geometry" />
        </mxCell>
        <mxCell id="X6q3V4Yi2Z0Jdoqjkr0T-3" value="&lt;font style=&quot;font-size: 20px;&quot;&gt;Inertial Measurement Unit&lt;/font&gt;" style="rounded=1;whiteSpace=wrap;html=1;verticalAlign=top;fillColor=#F3F3F3;" parent="1" vertex="1">
          <mxGeometry x="10" y="50" width="174.58" height="260" as="geometry" />
        </mxCell>
        <mxCell id="X6q3V4Yi2Z0Jdoqjkr0T-1" value="Gyroscope&amp;nbsp;&lt;div&gt;Accelerometer&lt;/div&gt;" style="ellipse;whiteSpace=wrap;html=1;fillColor=#e1d5e7;strokeColor=#9673a6;" parent="1" vertex="1">
          <mxGeometry x="37.28999999999999" y="110" width="120" height="80" as="geometry" />
        </mxCell>
        <mxCell id="X6q3V4Yi2Z0Jdoqjkr0T-2" value="Low &amp;amp; High Pass Filters" style="ellipse;whiteSpace=wrap;html=1;fillColor=#e1d5e7;strokeColor=#9673a6;" parent="1" vertex="1">
          <mxGeometry x="37.28999999999999" y="210" width="120" height="80" as="geometry" />
        </mxCell>
        <mxCell id="X6q3V4Yi2Z0Jdoqjkr0T-4" value="" style="endArrow=classic;html=1;rounded=0;exitX=0.5;exitY=1;exitDx=0;exitDy=0;entryX=0.5;entryY=0;entryDx=0;entryDy=0;" parent="1" source="X6q3V4Yi2Z0Jdoqjkr0T-1" target="X6q3V4Yi2Z0Jdoqjkr0T-2" edge="1">
          <mxGeometry width="50" height="50" relative="1" as="geometry">
            <mxPoint x="214.57999999999998" y="110" as="sourcePoint" />
            <mxPoint x="264.58" y="60" as="targetPoint" />
          </mxGeometry>
        </mxCell>
        <mxCell id="X6q3V4Yi2Z0Jdoqjkr0T-8" value="" style="endArrow=classic;html=1;rounded=0;exitX=1;exitY=0;exitDx=0;exitDy=0;entryX=0;entryY=1;entryDx=0;entryDy=0;align=right;" parent="1" source="X6q3V4Yi2Z0Jdoqjkr0T-2" target="X6q3V4Yi2Z0Jdoqjkr0T-11" edge="1">
          <mxGeometry width="50" height="50" relative="1" as="geometry">
            <mxPoint x="110" y="149.83000000000004" as="sourcePoint" />
            <mxPoint x="190" y="149.83000000000004" as="targetPoint" />
          </mxGeometry>
        </mxCell>
        <mxCell id="X6q3V4Yi2Z0Jdoqjkr0T-11" value="Scaling &amp;amp; Error Rejection" style="ellipse;whiteSpace=wrap;html=1;fillColor=#e1d5e7;strokeColor=#9673a6;" parent="1" vertex="1">
          <mxGeometry x="210" y="110" width="120" height="80" as="geometry" />
        </mxCell>
        <mxCell id="X6q3V4Yi2Z0Jdoqjkr0T-12" value="Sensor Fusion" style="ellipse;whiteSpace=wrap;html=1;fillColor=#e1d5e7;strokeColor=#9673a6;" parent="1" vertex="1">
          <mxGeometry x="360" y="110" width="120" height="80" as="geometry" />
        </mxCell>
        <mxCell id="X6q3V4Yi2Z0Jdoqjkr0T-13" value="Data Queue" style="ellipse;whiteSpace=wrap;html=1;fillColor=#e1d5e7;strokeColor=#9673a6;" parent="1" vertex="1">
          <mxGeometry x="210" y="210" width="120" height="80" as="geometry" />
        </mxCell>
        <mxCell id="X6q3V4Yi2Z0Jdoqjkr0T-15" value="" style="endArrow=classic;html=1;rounded=0;exitX=1;exitY=0.5;exitDx=0;exitDy=0;entryX=0;entryY=0.5;entryDx=0;entryDy=0;" parent="1" edge="1">
          <mxGeometry width="50" height="50" relative="1" as="geometry">
            <mxPoint x="330" y="149.76" as="sourcePoint" />
            <mxPoint x="360" y="149.76" as="targetPoint" />
          </mxGeometry>
        </mxCell>
        <mxCell id="X6q3V4Yi2Z0Jdoqjkr0T-16" value="" style="endArrow=classic;html=1;rounded=0;exitX=1;exitY=0.5;exitDx=0;exitDy=0;entryX=0;entryY=0.5;entryDx=0;entryDy=0;" parent="1" target="X6q3V4Yi2Z0Jdoqjkr0T-17" edge="1">
          <mxGeometry width="50" height="50" relative="1" as="geometry">
            <mxPoint x="480" y="149.76" as="sourcePoint" />
            <mxPoint x="510" y="149.76" as="targetPoint" />
          </mxGeometry>
        </mxCell>
        <mxCell id="X6q3V4Yi2Z0Jdoqjkr0T-17" value="Noise Crushing" style="ellipse;whiteSpace=wrap;html=1;fillColor=#e1d5e7;strokeColor=#9673a6;" parent="1" vertex="1">
          <mxGeometry x="510" y="60" width="120" height="80" as="geometry" />
        </mxCell>
        <mxCell id="X6q3V4Yi2Z0Jdoqjkr0T-18" value="" style="endArrow=classic;html=1;rounded=0;exitX=0;exitY=1;exitDx=0;exitDy=0;entryX=1;entryY=0;entryDx=0;entryDy=0;" parent="1" source="X6q3V4Yi2Z0Jdoqjkr0T-12" target="X6q3V4Yi2Z0Jdoqjkr0T-13" edge="1">
          <mxGeometry width="50" height="50" relative="1" as="geometry">
            <mxPoint x="370" y="130" as="sourcePoint" />
            <mxPoint x="420" y="80" as="targetPoint" />
          </mxGeometry>
        </mxCell>
        <mxCell id="X6q3V4Yi2Z0Jdoqjkr0T-19" value="SD Card Log" style="ellipse;whiteSpace=wrap;html=1;fillColor=#e1d5e7;strokeColor=#9673a6;" parent="1" vertex="1">
          <mxGeometry x="360" y="210" width="120" height="80" as="geometry" />
        </mxCell>
        <mxCell id="X6q3V4Yi2Z0Jdoqjkr0T-20" style="edgeStyle=orthogonalEdgeStyle;rounded=0;orthogonalLoop=1;jettySize=auto;html=1;exitX=1;exitY=0.5;exitDx=0;exitDy=0;entryX=-0.023;entryY=0.496;entryDx=0;entryDy=0;entryPerimeter=0;" parent="1" source="X6q3V4Yi2Z0Jdoqjkr0T-13" target="X6q3V4Yi2Z0Jdoqjkr0T-19" edge="1">
          <mxGeometry relative="1" as="geometry" />
        </mxCell>
        <mxCell id="X6q3V4Yi2Z0Jdoqjkr0T-52" style="edgeStyle=orthogonalEdgeStyle;rounded=0;orthogonalLoop=1;jettySize=auto;html=1;entryX=0.5;entryY=0;entryDx=0;entryDy=0;" parent="1" source="X6q3V4Yi2Z0Jdoqjkr0T-21" target="X6q3V4Yi2Z0Jdoqjkr0T-27" edge="1">
          <mxGeometry relative="1" as="geometry" />
        </mxCell>
        <mxCell id="X6q3V4Yi2Z0Jdoqjkr0T-21" value="Acceleration PID" style="ellipse;whiteSpace=wrap;html=1;fillColor=#e1d5e7;strokeColor=#9673a6;" parent="1" vertex="1">
          <mxGeometry x="660" y="60" width="120" height="80" as="geometry" />
        </mxCell>
        <mxCell id="X6q3V4Yi2Z0Jdoqjkr0T-53" style="rounded=0;orthogonalLoop=1;jettySize=auto;html=1;exitX=1;exitY=0.5;exitDx=0;exitDy=0;entryX=0;entryY=0;entryDx=0;entryDy=0;" parent="1" source="X6q3V4Yi2Z0Jdoqjkr0T-23" target="X6q3V4Yi2Z0Jdoqjkr0T-27" edge="1">
          <mxGeometry relative="1" as="geometry" />
        </mxCell>
        <mxCell id="X6q3V4Yi2Z0Jdoqjkr0T-23" value="Pitch PID" style="ellipse;whiteSpace=wrap;html=1;fillColor=#e1d5e7;strokeColor=#9673a6;" parent="1" vertex="1">
          <mxGeometry x="510" y="140" width="120" height="80" as="geometry" />
        </mxCell>
        <mxCell id="X6q3V4Yi2Z0Jdoqjkr0T-54" style="rounded=0;orthogonalLoop=1;jettySize=auto;html=1;entryX=0;entryY=0.5;entryDx=0;entryDy=0;exitX=1;exitY=0.5;exitDx=0;exitDy=0;" parent="1" source="X6q3V4Yi2Z0Jdoqjkr0T-24" target="X6q3V4Yi2Z0Jdoqjkr0T-27" edge="1">
          <mxGeometry relative="1" as="geometry" />
        </mxCell>
        <mxCell id="X6q3V4Yi2Z0Jdoqjkr0T-24" value="Roll PID" style="ellipse;whiteSpace=wrap;html=1;fillColor=#e1d5e7;strokeColor=#9673a6;" parent="1" vertex="1">
          <mxGeometry x="510" y="220" width="120" height="80" as="geometry" />
        </mxCell>
        <mxCell id="X6q3V4Yi2Z0Jdoqjkr0T-27" value="Transform Matrix" style="ellipse;whiteSpace=wrap;html=1;fillColor=#e1d5e7;strokeColor=#9673a6;" parent="1" vertex="1">
          <mxGeometry x="660" y="190" width="120" height="80" as="geometry" />
        </mxCell>
        <mxCell id="X6q3V4Yi2Z0Jdoqjkr0T-39" style="edgeStyle=orthogonalEdgeStyle;rounded=0;orthogonalLoop=1;jettySize=auto;html=1;exitX=1;exitY=0.5;exitDx=0;exitDy=0;entryX=0;entryY=0.5;entryDx=0;entryDy=0;curved=1;" parent="1" source="X6q3V4Yi2Z0Jdoqjkr0T-32" target="X6q3V4Yi2Z0Jdoqjkr0T-35" edge="1">
          <mxGeometry relative="1" as="geometry" />
        </mxCell>
        <mxCell id="X6q3V4Yi2Z0Jdoqjkr0T-32" value="&lt;font style=&quot;font-size: 20px;&quot;&gt;DAC&lt;/font&gt;" style="rounded=1;whiteSpace=wrap;html=1;fillColor=#F3F3F3;" parent="1" vertex="1">
          <mxGeometry x="810" y="100" width="120" height="60" as="geometry" />
        </mxCell>
        <mxCell id="X6q3V4Yi2Z0Jdoqjkr0T-35" value="&lt;font style=&quot;font-size: 20px;&quot;&gt;Amplifier &amp;amp; Motor 1&lt;/font&gt;" style="rounded=1;whiteSpace=wrap;html=1;fillColor=#F3F3F3;" parent="1" vertex="1">
          <mxGeometry x="990" y="60" width="120" height="60" as="geometry" />
        </mxCell>
        <mxCell id="X6q3V4Yi2Z0Jdoqjkr0T-36" value="&lt;font style=&quot;font-size: 20px;&quot;&gt;Amplifier &amp;amp; Motor 2&lt;/font&gt;" style="rounded=1;whiteSpace=wrap;html=1;fillColor=#F3F3F3;" parent="1" vertex="1">
          <mxGeometry x="990" y="140" width="120" height="60" as="geometry" />
        </mxCell>
        <mxCell id="X6q3V4Yi2Z0Jdoqjkr0T-37" value="&lt;font style=&quot;font-size: 20px;&quot;&gt;Amplifier &amp;amp; Motor 3&lt;/font&gt;" style="rounded=1;whiteSpace=wrap;html=1;fillColor=#F3F3F3;" parent="1" vertex="1">
          <mxGeometry x="955" y="220" width="120" height="60" as="geometry" />
        </mxCell>
        <mxCell id="X6q3V4Yi2Z0Jdoqjkr0T-38" value="&lt;font style=&quot;font-size: 20px;&quot;&gt;&lt;span style=&quot;color: rgb(0, 0, 0); font-family: Helvetica; font-style: normal; font-variant-ligatures: normal; font-variant-caps: normal; font-weight: 400; letter-spacing: normal; orphans: 2; text-align: center; text-indent: 0px; text-transform: none; widows: 2; word-spacing: 0px; -webkit-text-stroke-width: 0px; white-space: normal; background-color: rgb(251, 251, 251); text-decoration-thickness: initial; text-decoration-style: initial; text-decoration-color: initial; float: none; display: inline !important;&quot;&gt;Amplifier &amp;amp; Motor 4&lt;/span&gt;&lt;br&gt;&lt;/font&gt;" style="rounded=1;whiteSpace=wrap;html=1;fillColor=#F3F3F3;" parent="1" vertex="1">
          <mxGeometry x="810" y="250" width="120" height="60" as="geometry" />
        </mxCell>
        <mxCell id="X6q3V4Yi2Z0Jdoqjkr0T-41" style="edgeStyle=orthogonalEdgeStyle;rounded=0;orthogonalLoop=1;jettySize=auto;html=1;exitX=1;exitY=0.5;exitDx=0;exitDy=0;entryX=0;entryY=0.5;entryDx=0;entryDy=0;curved=1;" parent="1" source="X6q3V4Yi2Z0Jdoqjkr0T-32" target="X6q3V4Yi2Z0Jdoqjkr0T-36" edge="1">
          <mxGeometry relative="1" as="geometry">
            <mxPoint x="1000" y="190" as="sourcePoint" />
            <mxPoint x="1080" y="100" as="targetPoint" />
            <Array as="points">
              <mxPoint x="970" y="130" />
              <mxPoint x="970" y="170" />
            </Array>
          </mxGeometry>
        </mxCell>
        <mxCell id="X6q3V4Yi2Z0Jdoqjkr0T-42" style="edgeStyle=orthogonalEdgeStyle;rounded=0;orthogonalLoop=1;jettySize=auto;html=1;exitX=1;exitY=0.5;exitDx=0;exitDy=0;entryX=0.25;entryY=0;entryDx=0;entryDy=0;curved=1;" parent="1" source="X6q3V4Yi2Z0Jdoqjkr0T-32" target="X6q3V4Yi2Z0Jdoqjkr0T-37" edge="1">
          <mxGeometry relative="1" as="geometry">
            <mxPoint x="1000" y="190" as="sourcePoint" />
            <mxPoint x="1080" y="160" as="targetPoint" />
            <Array as="points">
              <mxPoint x="960" y="130" />
              <mxPoint x="960" y="190" />
              <mxPoint x="985" y="190" />
            </Array>
          </mxGeometry>
        </mxCell>
        <mxCell id="X6q3V4Yi2Z0Jdoqjkr0T-43" style="edgeStyle=orthogonalEdgeStyle;rounded=0;orthogonalLoop=1;jettySize=auto;html=1;exitX=1;exitY=0.5;exitDx=0;exitDy=0;entryX=0.5;entryY=0;entryDx=0;entryDy=0;curved=1;" parent="1" source="X6q3V4Yi2Z0Jdoqjkr0T-32" target="X6q3V4Yi2Z0Jdoqjkr0T-38" edge="1">
          <mxGeometry relative="1" as="geometry">
            <mxPoint x="1010" y="200" as="sourcePoint" />
            <mxPoint x="1090" y="170" as="targetPoint" />
            <Array as="points">
              <mxPoint x="950" y="130" />
              <mxPoint x="950" y="205" />
              <mxPoint x="870" y="205" />
            </Array>
          </mxGeometry>
        </mxCell>
        <mxCell id="X6q3V4Yi2Z0Jdoqjkr0T-44" value="&lt;font style=&quot;font-size: 40px;&quot;&gt;ORC System Diagram&lt;/font&gt;" style="text;html=1;align=center;verticalAlign=middle;whiteSpace=wrap;rounded=0;" parent="1" vertex="1">
          <mxGeometry x="180" y="10" width="760" height="30" as="geometry" />
        </mxCell>
        <mxCell id="X6q3V4Yi2Z0Jdoqjkr0T-48" value="" style="endArrow=classic;html=1;rounded=0;exitX=1;exitY=0;exitDx=0;exitDy=0;entryX=0;entryY=0.5;entryDx=0;entryDy=0;" parent="1" source="X6q3V4Yi2Z0Jdoqjkr0T-27" target="X6q3V4Yi2Z0Jdoqjkr0T-32" edge="1">
          <mxGeometry width="50" height="50" relative="1" as="geometry">
            <mxPoint x="810" y="130" as="sourcePoint" />
            <mxPoint x="860" y="80" as="targetPoint" />
          </mxGeometry>
        </mxCell>
        <mxCell id="X6q3V4Yi2Z0Jdoqjkr0T-49" value="" style="endArrow=classic;html=1;rounded=0;exitX=1;exitY=0.5;exitDx=0;exitDy=0;entryX=0;entryY=0.5;entryDx=0;entryDy=0;" parent="1" source="X6q3V4Yi2Z0Jdoqjkr0T-17" target="X6q3V4Yi2Z0Jdoqjkr0T-21" edge="1">
          <mxGeometry width="50" height="50" relative="1" as="geometry">
            <mxPoint x="650" y="210" as="sourcePoint" />
            <mxPoint x="700" y="160" as="targetPoint" />
          </mxGeometry>
        </mxCell>
        <mxCell id="X6q3V4Yi2Z0Jdoqjkr0T-50" value="" style="endArrow=classic;html=1;rounded=0;exitX=1;exitY=0.5;exitDx=0;exitDy=0;entryX=0;entryY=0.5;entryDx=0;entryDy=0;" parent="1" source="X6q3V4Yi2Z0Jdoqjkr0T-12" target="X6q3V4Yi2Z0Jdoqjkr0T-23" edge="1">
          <mxGeometry width="50" height="50" relative="1" as="geometry">
            <mxPoint x="650" y="210" as="sourcePoint" />
            <mxPoint x="700" y="160" as="targetPoint" />
          </mxGeometry>
        </mxCell>
        <mxCell id="X6q3V4Yi2Z0Jdoqjkr0T-51" value="" style="endArrow=classic;html=1;rounded=0;exitX=1;exitY=0.5;exitDx=0;exitDy=0;entryX=0;entryY=0;entryDx=0;entryDy=0;" parent="1" source="X6q3V4Yi2Z0Jdoqjkr0T-12" target="X6q3V4Yi2Z0Jdoqjkr0T-24" edge="1">
          <mxGeometry width="50" height="50" relative="1" as="geometry">
            <mxPoint x="650" y="210" as="sourcePoint" />
            <mxPoint x="700" y="160" as="targetPoint" />
          </mxGeometry>
        </mxCell>
      </root>
    </mxGraphModel>
  </diagram>
</mxfile>
